<svg width="722" height="533" viewBox="0 0 722 533" fill="none" xmlns="http://www.w3.org/2000/svg">
<path d="M246.865 286.971V260.721H318.346C319.019 272.029 317.875 282.596 314.913 292.423C311.952 302.25 307.375 310.933 301.183 318.471C294.99 326.01 287.25 331.933 277.961 336.24C268.673 340.413 258.038 342.5 246.058 342.5C234.75 342.5 224.385 340.75 214.961 337.25C205.538 333.615 197.394 328.5 190.529 321.904C183.663 315.173 178.279 307.231 174.375 298.077C170.606 288.788 168.721 278.558 168.721 267.385C168.721 256.211 170.673 246.115 174.577 237.096C178.481 227.942 184 220.135 191.135 213.673C198.269 207.211 206.615 202.231 216.173 198.731C225.731 195.231 236.096 193.481 247.269 193.481C257.231 193.481 266.183 194.894 274.125 197.721C282.067 200.548 289.067 204.519 295.125 209.635C301.317 214.615 306.635 220.404 311.077 227L280.788 242.75C277.558 237.096 273.183 232.452 267.663 228.817C262.279 225.048 255.481 223.163 247.269 223.163C239.461 223.163 232.26 224.913 225.663 228.413C219.202 231.913 214.019 236.961 210.115 243.558C206.346 250.019 204.461 257.961 204.461 267.385C204.461 276.673 206.279 284.75 209.913 291.615C213.683 298.346 218.731 303.596 225.058 307.365C231.519 311 238.923 312.817 247.269 312.817C252.385 312.817 257.029 312.211 261.202 311C265.375 309.654 268.942 307.836 271.904 305.548C274.865 303.125 277.356 300.365 279.375 297.269C281.529 294.038 283.211 290.606 284.423 286.971H246.865ZM360.034 301.711C360.034 307.096 361.043 311.336 363.063 314.433C365.082 317.394 368.582 318.875 373.563 318.875C376.928 318.875 379.755 318.202 382.043 316.856C384.466 315.51 386.351 313.558 387.697 311C389.043 308.442 389.716 305.346 389.716 301.711V245.173H420.207V338.058H389.716V324.125C386.89 329.106 383.188 333.077 378.611 336.038C374.034 338.865 368.313 340.279 361.447 340.279C349.87 340.279 341.39 337.183 336.005 330.99C330.755 324.663 328.13 315.981 328.13 304.942V245.173H360.034V301.711ZM432.362 210.24C432.362 205.394 434.112 201.49 437.612 198.529C441.112 195.433 445.285 193.885 450.131 193.885C455.112 193.885 459.285 195.433 462.65 198.529C466.15 201.49 467.9 205.394 467.9 210.24C467.9 215.086 466.15 219.058 462.65 222.154C459.285 225.25 455.112 226.798 450.131 226.798C445.285 226.798 441.112 225.25 437.612 222.154C434.112 219.058 432.362 215.086 432.362 210.24ZM435.391 245.173H464.871V338.058H435.391V245.173ZM550.359 180.558H580.849V338.058H550.359V180.558ZM474.436 291.615C474.436 281.115 476.522 272.298 480.695 265.163C485.003 258.029 490.522 252.577 497.253 248.808C503.984 245.038 511.118 243.154 518.657 243.154C526.465 243.154 533.33 245.106 539.253 249.01C545.311 252.913 550.09 258.5 553.59 265.769C557.09 272.904 558.84 281.519 558.84 291.615C558.84 301.577 557.09 310.192 553.59 317.461C550.09 324.731 545.311 330.317 539.253 334.221C533.33 338.125 526.465 340.077 518.657 340.077C511.118 340.077 503.984 338.192 497.253 334.423C490.522 330.654 485.003 325.202 480.695 318.067C476.522 310.798 474.436 301.981 474.436 291.615ZM506.542 291.615C506.542 296.461 507.551 300.702 509.57 304.336C511.59 307.836 514.282 310.596 517.647 312.615C521.013 314.5 524.715 315.442 528.753 315.442C532.253 315.442 535.618 314.5 538.849 312.615C542.215 310.731 544.974 308.038 547.128 304.538C549.282 300.904 550.359 296.596 550.359 291.615C550.359 286.635 549.282 282.394 547.128 278.894C544.974 275.26 542.215 272.5 538.849 270.615C535.618 268.731 532.253 267.788 528.753 267.788C524.715 267.788 521.013 268.798 517.647 270.817C514.282 272.702 511.59 275.461 509.57 279.096C507.551 282.596 506.542 286.769 506.542 291.615ZM641.666 340.077C630.897 340.077 621.541 338.125 613.599 334.221C605.791 330.183 599.733 324.529 595.426 317.26C591.118 309.99 588.964 301.442 588.964 291.615C588.964 281.654 591.051 273.038 595.224 265.769C599.397 258.5 605.387 252.913 613.195 249.01C621.137 245.106 630.493 243.154 641.262 243.154C652.031 243.154 661.118 245.038 668.522 248.808C675.926 252.442 681.579 257.76 685.483 264.76C689.387 271.76 691.339 280.24 691.339 290.202C691.339 291.683 691.339 293.163 691.339 294.644C691.339 295.99 691.204 297.135 690.935 298.077H606.127V281.115H663.474L656.204 290.404C656.877 289.461 657.416 288.317 657.82 286.971C658.358 285.49 658.627 284.279 658.627 283.336C658.627 279.298 657.887 275.798 656.406 272.836C654.926 269.875 652.839 267.586 650.147 265.971C647.454 264.356 644.291 263.548 640.656 263.548C636.079 263.548 632.243 264.558 629.147 266.577C626.051 268.596 623.695 271.692 622.079 275.865C620.599 279.904 619.791 285.019 619.656 291.211C619.656 296.865 620.464 301.711 622.079 305.75C623.695 309.788 626.118 312.885 629.349 315.038C632.579 317.058 636.551 318.067 641.262 318.067C646.647 318.067 651.224 317.058 654.993 315.038C658.897 313.019 661.993 309.99 664.281 305.952L691.541 312.615C686.695 321.769 680.099 328.635 671.752 333.211C663.541 337.788 653.512 340.077 641.666 340.077Z" fill="white"/>
<path d="M277.103 431.058V475.885H254.084V433.481C254.084 429.24 253.377 426.06 251.964 423.94C250.651 421.719 248.43 420.608 245.3 420.608C243.281 420.608 241.464 421.113 239.848 422.123C238.334 423.031 237.123 424.445 236.214 426.363C235.406 428.281 235.002 430.654 235.002 433.481V475.885H211.983V433.481C211.983 429.24 211.276 426.06 209.863 423.94C208.55 421.719 206.329 420.608 203.199 420.608C201.18 420.608 199.363 421.113 197.748 422.123C196.233 423.031 195.022 424.445 194.113 426.363C193.305 428.281 192.901 430.654 192.901 433.481V475.885H170.791V406.221H192.901V416.519C194.82 412.784 197.445 409.856 200.776 407.736C204.209 405.615 208.298 404.555 213.043 404.555C218.495 404.555 222.836 405.565 226.067 407.584C229.298 409.502 231.62 412.329 233.034 416.065C235.558 412.43 238.687 409.603 242.423 407.584C246.159 405.565 250.399 404.555 255.144 404.555C260.596 404.555 264.887 405.615 268.017 407.736C271.248 409.755 273.57 412.733 274.983 416.671C276.397 420.608 277.103 425.404 277.103 431.058ZM321.372 477.399C313.295 477.399 306.278 475.935 300.321 473.007C294.466 469.978 289.922 465.738 286.691 460.286C283.461 454.834 281.845 448.423 281.845 441.053C281.845 433.582 283.41 427.12 286.54 421.668C289.67 416.216 294.163 412.026 300.018 409.099C305.975 406.171 312.992 404.707 321.069 404.707C329.146 404.707 335.961 406.12 341.514 408.947C347.066 411.673 351.307 415.661 354.235 420.911C357.163 426.161 358.627 432.522 358.627 439.993C358.627 441.103 358.627 442.214 358.627 443.325C358.627 444.334 358.526 445.192 358.324 445.899H294.718V433.178H337.728L332.276 440.144C332.78 439.438 333.184 438.579 333.487 437.57C333.891 436.459 334.093 435.551 334.093 434.844C334.093 431.815 333.538 429.19 332.427 426.969C331.316 424.748 329.752 423.031 327.732 421.82C325.713 420.608 323.341 420.002 320.615 420.002C317.182 420.002 314.304 420.76 311.982 422.274C309.66 423.788 307.893 426.111 306.682 429.24C305.571 432.269 304.966 436.106 304.865 440.75C304.865 444.99 305.47 448.625 306.682 451.654C307.893 454.683 309.711 457.005 312.134 458.62C314.557 460.135 317.535 460.892 321.069 460.892C325.107 460.892 328.54 460.135 331.367 458.62C334.295 457.106 336.617 454.834 338.333 451.805L358.778 456.803C355.143 463.668 350.196 468.817 343.937 472.25C337.778 475.683 330.256 477.399 321.372 477.399Z" fill="white"/>
<path d="M428.751 427.877H455.254L488.42 475.885H458.434L428.751 427.877ZM402.249 369.875H427.843V475.885H402.249V369.875ZM418.302 391.531V369.875H440.867C449.953 369.875 457.525 371.339 463.583 374.267C469.641 377.195 474.235 381.284 477.364 386.534C480.494 391.683 482.059 397.69 482.059 404.555C482.059 411.32 480.494 417.327 477.364 422.577C474.235 427.726 469.641 431.764 463.583 434.692C457.525 437.62 449.953 439.084 440.867 439.084H418.302V419.245H439.05C442.482 419.245 445.41 418.74 447.833 417.731C450.357 416.62 452.275 415.055 453.588 413.036C454.9 410.916 455.557 408.392 455.557 405.464C455.557 402.536 454.9 400.063 453.588 398.043C452.275 395.923 450.357 394.308 447.833 393.197C445.41 392.087 442.482 391.531 439.05 391.531H418.302ZM487.581 380.022C487.581 376.387 488.893 373.459 491.518 371.238C494.143 368.916 497.273 367.755 500.908 367.755C504.643 367.755 507.773 368.916 510.297 371.238C512.922 373.459 514.235 376.387 514.235 380.022C514.235 383.656 512.922 386.635 510.297 388.957C507.773 391.279 504.643 392.44 500.908 392.44C497.273 392.44 494.143 391.279 491.518 388.957C488.893 386.635 487.581 383.656 487.581 380.022ZM489.853 406.221H511.963V475.885H489.853V406.221ZM519.136 480.882H541.247C541.55 483.709 542.358 486.082 543.67 488C545.084 489.918 546.951 491.332 549.274 492.24C551.596 493.25 554.221 493.755 557.149 493.755C560.379 493.755 563.307 492.998 565.932 491.483C568.557 490.07 570.627 487.899 572.141 484.971C573.757 482.144 574.564 478.611 574.564 474.37V406.221H596.524V474.37C596.524 483.255 594.757 490.474 591.223 496.026C587.79 501.579 583.197 505.618 577.442 508.142C571.687 510.767 565.225 512.079 558.057 512.079C549.475 512.079 542.358 510.767 536.704 508.142C531.151 505.517 526.961 501.832 524.134 497.087C521.307 492.442 519.641 487.041 519.136 480.882ZM517.622 440.144C517.622 432.269 519.187 425.707 522.317 420.457C525.548 415.207 529.687 411.269 534.735 408.644C539.783 406.019 545.134 404.707 550.788 404.707C556.644 404.707 561.793 406.12 566.235 408.947C570.778 411.673 574.362 415.661 576.987 420.911C579.612 426.161 580.925 432.572 580.925 440.144C580.925 447.615 579.612 454.026 576.987 459.377C574.362 464.627 570.778 468.666 566.235 471.493C561.793 474.219 556.644 475.582 550.788 475.582C545.134 475.582 539.783 474.269 534.735 471.644C529.687 468.918 525.548 464.93 522.317 459.68C519.187 454.43 517.622 447.918 517.622 440.144ZM541.701 440.144C541.701 443.678 542.459 446.757 543.973 449.382C545.487 451.906 547.507 453.825 550.031 455.137C552.555 456.45 555.331 457.106 558.36 457.106C560.985 457.106 563.509 456.5 565.932 455.288C568.456 453.976 570.526 452.058 572.141 449.534C573.757 447.01 574.564 443.88 574.564 440.144C574.564 437.317 574.06 434.844 573.05 432.724C572.141 430.603 570.879 428.837 569.264 427.423C567.749 426.01 566.033 424.95 564.115 424.243C562.197 423.536 560.278 423.183 558.36 423.183C555.331 423.183 552.555 423.839 550.031 425.151C547.507 426.464 545.487 428.382 543.973 430.906C542.459 433.43 541.701 436.51 541.701 440.144ZM628.077 357.76V475.885H605.058V357.76H628.077ZM650.339 433.481C650.339 429.341 649.582 426.161 648.067 423.94C646.553 421.719 643.928 420.608 640.192 420.608C637.769 420.608 635.649 421.163 633.832 422.274C632.014 423.284 630.601 424.748 629.591 426.666C628.582 428.483 628.077 430.755 628.077 433.481H624.139C624.139 427.928 625.048 422.93 626.865 418.488C628.683 413.945 631.408 410.361 635.043 407.736C638.779 405.01 643.524 403.647 649.279 403.647C655.033 403.647 659.627 404.656 663.06 406.676C666.594 408.695 669.168 411.673 670.783 415.611C672.399 419.548 673.207 424.394 673.207 430.149V475.885H650.339V433.481ZM674.015 406.221H720.659V425.151H674.015V406.221ZM686.281 381.99H708.241V475.885H686.281V381.99Z" fill="#C3F657"/>
<path d="M65.9418 514.808C0.316762 403.75 -73.3847 131.154 277.961 50.3845" stroke="url(#paint0_linear_59_19)" stroke-width="20.1923"/>
<path d="M182.048 10L288.057 45.3365L227.481 126.106" stroke="#C3F657" stroke-width="20.1923"/>
<defs>
<linearGradient id="paint0_linear_59_19" x1="252.721" y1="50.3845" x2="50.798" y2="514.808" gradientUnits="userSpaceOnUse">
<stop stop-color="#C3F657"/>
<stop offset="1" stop-color="white" stop-opacity="0.7"/>
</linearGradient>
</defs>
</svg>
