<svg width="356" height="433" viewBox="0 0 356 433" fill="none" xmlns="http://www.w3.org/2000/svg">
<g opacity="0.4">
<path d="M176.587 417.709C164.689 418.871 152.211 420.482 142.564 427.639C141.149 428.674 139.799 429.962 139.541 431.704C139.091 435.508 144.236 437.058 148.095 437.185C217.363 439.377 286.631 439.573 355.9 437.831C356.8 433.058 351.462 429.704 346.96 428.093C293.513 408.552 232.156 412.29 176.587 417.709Z" fill="url(#paint0_linear_58_105)"/>
<path d="M176.574 417.709C164.675 418.871 152.199 420.482 142.551 427.639C141.136 428.674 139.786 429.962 139.529 431.704C139.078 435.508 144.223 437.058 148.082 437.185C217.351 439.377 286.619 439.573 355.887 437.831C356.787 433.058 351.449 429.704 346.947 428.093C293.501 408.552 232.143 412.29 176.574 417.709Z" fill="url(#paint1_linear_58_105)"/>
<path d="M138.216 324.055C134.035 332.761 135.9 346.498 137.765 358.429C139.18 367.393 141.624 376.938 148.699 382.549C152.687 385.709 157.639 387.258 162.591 388.481C185.23 393.966 209.349 393.189 231.538 386.289C235.976 384.87 240.478 383.194 244.144 380.356C249.996 375.777 253.148 368.554 255.463 361.46C258.615 351.786 266.397 329.988 256.75 324.635C248.26 319.927 220.99 325.732 210.828 325.667C203.11 325.667 195.392 325.538 187.803 323.732C179.12 321.733 170.631 317.541 161.884 315.929C148.377 313.413 141.496 317.219 138.216 324.055Z" fill="#2F3F47"/>
<path d="M193.42 401.069C193.484 400.295 193.548 399.522 193.613 398.684C186.924 394.104 175.154 395.588 168.079 397.911C160.49 400.361 160.49 405.134 160.554 413.002C160.619 417.452 161.004 422.544 164.413 425.382C167.05 427.639 170.78 427.897 174.189 428.155C177.276 428.351 180.363 428.543 183.45 428.674C185.573 428.801 187.953 428.866 189.625 427.447C191.297 426.028 191.554 423.578 191.747 421.448C192.327 414.679 192.841 407.906 193.42 401.069Z" fill="#2F3F47"/>
<path d="M199.605 401.067C199.541 400.294 199.476 399.521 199.412 398.683C206.101 394.103 217.871 395.587 224.945 397.91C232.535 400.36 232.535 405.133 232.47 413.001C232.406 417.451 232.02 422.543 228.611 425.381C225.974 427.638 222.244 427.896 218.835 428.154C215.748 428.35 212.661 428.542 209.574 428.673C207.451 428.8 205.072 428.865 203.4 427.446C201.728 426.027 201.47 423.577 201.277 421.447C200.698 414.678 200.184 407.905 199.605 401.067Z" fill="#2F3F47"/>
<path d="M37.5605 77.6344C37.7535 79.2466 37.9466 80.9234 37.3678 82.4713C36.9175 83.6966 36.0169 84.6639 35.1165 85.6315C31.3218 89.5654 27.2057 93.2413 22.7679 96.466C17.7513 95.7564 12.8632 94.4023 8.23248 92.3386C7.39638 91.9517 6.49603 91.5002 5.9172 90.7265C5.467 90.1461 5.33844 89.3719 5.2098 88.6628C3.47329 80.4077 1.73677 72.0879 0.000244141 63.8332C2.57288 62.0918 5.40264 60.6731 8.29684 59.5766C9.45454 64.5428 10.6121 69.5731 11.7698 74.5389C12.8631 79.3112 14.6643 84.8577 19.3594 86.2118C22.1893 83.7612 25.0189 81.2461 27.8487 78.7951C28.3633 78.3436 28.8136 77.8925 29.1352 77.3121C29.4567 76.6026 29.3281 75.7642 29.1995 74.9258C28.492 70.0889 27.3986 65.2519 25.9194 60.5438C28.299 60.0923 30.6146 59.6412 32.9943 59.1897C35.9529 64.8004 36.7887 71.3141 37.5605 77.6344Z" fill="#C3F657"/>
<path d="M15.5508 96.6046C15.4865 96.8627 15.5509 97.1208 15.6152 97.3784C16.3227 100.345 17.0302 103.312 17.7377 106.278C22.3685 105.182 26.9349 103.699 31.3727 101.958C30.9225 99.3779 30.2149 96.8627 29.2501 94.4764C29.0572 93.9606 28.7354 93.3799 28.2208 93.1865C27.8993 93.0576 27.5136 93.1218 27.192 93.1865C23.526 93.8314 19.9244 94.7344 16.4513 95.8955C16.0654 96.0889 15.6794 96.2824 15.5508 96.6046Z" fill="#2F3F47"/>
<path d="M16.533 109.11C16.0828 114.591 23.6075 124.717 25.9229 129.231C29.0101 135.358 32.0974 141.549 36.4708 146.773C40.8441 152.061 46.6328 156.382 53.3217 157.801C57.116 158.575 61.0396 158.381 64.8983 157.866C76.4753 156.382 87.7305 152.19 97.5065 145.741C98.2781 145.225 99.1143 144.645 99.436 143.742C99.7574 142.839 99.436 141.807 99.1143 140.84C97.8923 137.164 96.6704 133.101 94.8052 129.747C91.5252 123.814 93.5833 124.846 88.3093 125.297C84.2576 125.62 78.4689 129.876 74.1599 130.972C69.1433 132.198 63.9337 132.843 58.8527 133.488C55.6367 133.875 52.0353 134.197 49.3341 132.391C47.8548 131.359 46.8258 129.876 45.8612 128.328C40.0725 119.3 34.7987 109.948 30.168 100.339C29.3962 98.6624 17.562 105.627 16.7902 108.271C16.5972 108.529 16.533 108.787 16.533 109.11Z" fill="#516770"/>
<g opacity="0.15">
<path opacity="0.15" d="M64.8409 154.314C62.397 148.38 61.3036 142.447 60.9822 136.127C60.9177 134.901 59.2455 134.708 59.0526 135.998C57.9595 142.77 59.0526 149.67 61.4324 156.055C62.2041 158.376 65.7415 156.635 64.8409 154.314Z" fill="#272525"/>
<path opacity="0.15" d="M53.7135 154.771C52.0413 148.709 52.6849 143.872 54.6785 138.003C54.9359 137.229 53.778 136.649 53.3921 137.358C51.5914 140.325 49.5974 142.711 49.0187 146.258C48.4399 149.612 48.5684 152.901 49.7903 156.125C50.5624 158.382 54.3567 157.093 53.7135 154.771Z" fill="#272525"/>
</g>
<path d="M113.922 103.187C105.175 107.443 103.052 118.858 102.281 128.597C97.2641 188.445 99.1937 248.938 107.941 308.335C109.034 315.559 110.578 323.426 116.238 328.005C119.903 330.972 124.727 332.004 129.358 332.842C176.501 341.484 225.188 341.548 272.332 333.036C273.876 332.778 275.548 332.455 276.834 331.423C278.571 330.069 279.214 327.812 279.729 325.684C296.644 259.322 292.656 189.67 288.347 121.373C288.218 118.987 288.025 116.536 286.932 114.473C285.581 111.957 283.073 110.28 280.5 108.991C265.836 101.252 248.664 100.607 232.135 100.349C196.632 99.7038 161.13 100.026 125.627 101.188C121.64 101.252 117.459 101.445 113.922 103.187Z" fill="#EAF1F2"/>
<path d="M138.426 84.221C177.209 92.1538 216.827 91.5085 255.482 82.3508C263.649 80.4159 272.461 77.5785 277.992 68.3561C287.511 52.4266 281.337 25.4044 269.374 13.6024C257.411 1.8004 242.168 0.961812 227.826 0.510367C204.801 -0.199044 181.647 -0.908328 158.879 3.86408C145.694 6.63724 131.866 11.9899 123.055 26.6941C114.244 41.3983 113.665 67.9692 124.92 78.4168C128.844 82.0927 133.731 83.2538 138.426 84.221Z" fill="#EAF1F2"/>
<path d="M148.256 404.245C180.349 406.76 213.086 406.568 245.115 403.664C251.869 403.018 259.136 402.114 263.703 399.215C271.549 394.119 266.468 385.543 256.564 381.801C246.659 378.061 234.053 377.803 222.155 377.61C203.117 377.351 183.951 377.158 165.107 378.706C154.237 379.609 142.725 381.285 135.457 385.993C128.189 390.7 127.675 399.149 137 402.438C140.345 403.534 144.332 403.922 148.256 404.245Z" fill="#EAF1F2"/>
<path d="M160.356 64.932C185.953 68.3502 212.001 68.0921 237.535 64.0936C242.937 63.2552 248.726 62.0299 252.328 58.0314C258.631 51.1308 254.514 39.4575 246.668 34.3627C238.821 29.2678 228.723 28.8808 219.269 28.6874C204.09 28.3649 188.847 28.0427 173.798 30.1709C165.115 31.3963 155.982 33.6533 150.194 40.0378C144.405 46.4227 144.019 57.9025 151.416 62.3522C154.053 64.029 157.269 64.5451 160.356 64.932Z" fill="#4B5D26"/>
<path d="M165.693 103.827C162.477 103.827 158.682 104.214 157.139 107.051C156.367 108.47 156.367 110.147 156.431 111.759C157.524 150.841 158.682 189.988 159.775 229.07C184.408 235.648 210.649 242.227 234.896 234.359C238.177 191.471 238.949 148.455 237.148 105.439C227.114 103.246 216.695 103.311 206.405 103.44C192.898 103.569 179.328 103.698 165.693 103.827Z" fill="#E2ECED"/>
<path d="M239.332 105.434C239.268 104.531 238.689 103.563 237.789 103.37C226.726 101.112 215.535 101.177 204.344 101.306C191.481 101.435 178.618 101.564 165.755 101.628C157.2 101.886 154.242 105.498 154.436 113.946C154.821 126.716 155.143 139.485 155.529 152.319C156.236 177.858 157.008 203.461 157.715 229C157.715 229.967 158.359 230.806 159.259 231.064C184.021 237.706 210.197 244.155 235.473 236.352C236.438 236.029 236.952 235.256 237.017 234.288C240.297 191.466 241.069 148.449 239.332 105.434ZM232.965 232.74C209.361 239.512 185.05 233.579 161.96 227.387C161.381 206.879 160.802 186.371 160.224 165.862C159.902 155.35 159.645 144.838 159.323 134.262C159.194 128.973 159.002 123.749 158.873 118.461C158.809 116.203 158.744 113.946 158.68 111.689C158.551 107.239 162.153 106.014 165.819 105.885C177.267 105.756 188.716 105.692 200.164 105.562C211.869 105.434 223.703 105.047 235.28 107.175C236.759 149.095 236.052 190.949 232.965 232.74Z" fill="#4B5D26"/>
<path opacity="0.2" d="M203.063 222.765C203.642 221.862 203.964 220.895 204.285 219.928C204.671 218.573 204.992 217.154 204.735 215.736C204.542 214.639 203.964 213.672 203.385 212.64C203.192 212.318 202.999 211.931 202.806 211.609C202.484 211.092 202.227 210.512 201.777 210.061C200.683 208.835 198.947 208.448 197.339 208.126C196.181 207.932 195.024 207.739 193.802 207.868C191.165 208.19 188.913 210.189 188.013 212.705C187.113 215.155 187.435 217.993 188.528 220.379C189.943 223.41 192.837 225.926 196.181 226.184C198.947 226.377 201.648 225.023 203.063 222.765Z" fill="#272525"/>
<path d="M201.181 222.375C201.76 221.472 202.082 220.505 202.403 219.537C202.789 218.183 203.111 216.764 202.853 215.345C202.66 214.249 202.082 213.282 201.567 212.25C201.374 211.927 201.181 211.541 200.988 211.218C200.667 210.702 200.409 210.121 199.959 209.67C198.866 208.444 197.129 208.058 195.521 207.735C194.363 207.542 193.206 207.348 191.984 207.477C189.347 207.8 187.096 209.799 186.195 212.314C185.295 214.83 185.616 217.602 186.71 219.989C188.125 223.02 191.019 225.535 194.364 225.793C197.065 226.051 199.766 224.632 201.181 222.375Z" fill="#83959E"/>
<path opacity="0.2" d="M195.967 218.172C196.482 217.462 196.546 216.624 196.546 215.786C196.546 215.528 196.546 215.205 196.482 214.947C196.353 214.56 196.032 214.238 195.646 213.98C194.553 213.271 193.009 213.206 191.851 213.915C190.758 214.625 190.115 216.173 190.565 217.398C191.273 218.172 192.108 218.817 193.137 219.075C194.166 219.268 195.324 219.01 195.967 218.172Z" fill="black"/>
<path opacity="0.2" d="M203.642 316.777C204.22 315.875 204.542 314.907 204.864 313.94C205.249 312.586 205.571 311.167 205.314 309.748C205.121 308.652 204.542 307.684 204.027 306.652C203.834 306.33 203.642 305.943 203.449 305.62C203.127 305.104 202.87 304.524 202.42 304.072C201.326 302.847 199.59 302.46 197.982 302.138C196.824 301.944 195.666 301.751 194.444 301.88C191.808 302.202 189.556 304.202 188.656 306.717C187.756 309.168 188.077 312.005 189.17 314.392C190.585 317.422 193.48 319.938 196.824 320.195C199.461 320.453 202.227 319.099 203.642 316.777Z" fill="#272525"/>
<path d="M201.767 316.449C202.346 315.546 202.668 314.578 202.989 313.611C203.375 312.257 203.697 310.838 203.439 309.419C203.246 308.322 202.668 307.355 202.088 306.323C201.896 306.001 201.703 305.614 201.51 305.291C201.188 304.775 200.931 304.195 200.481 303.743C199.387 302.518 197.651 302.131 196.043 301.809C194.885 301.615 193.728 301.421 192.505 301.551C189.869 301.873 187.617 303.872 186.717 306.387C185.817 308.838 186.138 311.676 187.232 314.062C188.647 317.093 191.541 319.608 194.885 319.866C197.587 320.06 200.352 318.706 201.767 316.449Z" fill="#83959E"/>
<path opacity="0.2" d="M196.562 312.244C197.076 311.534 197.076 310.696 197.14 309.857C197.14 309.6 197.14 309.277 197.076 309.019C196.947 308.632 196.626 308.31 196.24 308.051C195.147 307.342 193.603 307.278 192.446 307.987C191.352 308.696 190.709 310.245 191.159 311.47C191.866 312.244 192.703 312.889 193.732 313.147C194.697 313.34 195.918 313.082 196.562 312.244Z" fill="black"/>
<path d="M290.831 229.308C291.667 227.889 292.503 226.47 293.854 225.567C294.948 224.858 296.234 224.664 297.52 224.406C302.923 223.568 308.389 223.181 313.856 223.246C317.458 226.793 320.545 230.92 322.989 235.37C323.439 236.208 323.89 237.111 323.89 238.014C323.89 238.724 323.568 239.433 323.246 240.142C319.645 247.817 316.043 255.427 312.441 263.101C309.354 262.973 306.267 262.392 303.244 261.425C305.302 256.781 307.425 252.073 309.483 247.43C311.476 242.98 313.406 237.498 310.512 233.564C306.781 233.822 303.051 234.08 299.256 234.338C298.613 234.402 297.906 234.402 297.392 234.725C296.684 235.112 296.298 235.822 295.912 236.531C293.532 240.852 291.539 245.366 289.867 249.945C287.68 248.913 285.557 247.817 283.371 246.785C284.335 240.529 287.615 234.854 290.831 229.308Z" fill="#C3F657"/>
<path d="M319.84 227.58C320.033 227.451 320.162 227.193 320.29 226.935C321.513 224.162 322.734 221.324 323.956 218.551C319.583 216.616 315.081 215.004 310.45 213.714C309.228 216.036 308.327 218.422 307.62 220.937C307.491 221.453 307.363 222.098 307.684 222.549C307.877 222.872 308.199 223.001 308.52 223.194C311.801 224.936 315.209 226.355 318.747 227.516C319.068 227.644 319.519 227.773 319.84 227.58Z" fill="#C3F657"/>
<path d="M326.593 217.006C330.195 212.943 330.324 200.303 331.224 195.337C332.446 188.63 333.732 181.794 333.411 174.958C333.089 168.122 331.16 161.157 326.658 155.997C324.085 153.095 320.869 150.838 317.461 148.967C307.299 143.163 295.851 139.681 284.209 138.842C283.309 138.778 282.28 138.778 281.508 139.229C280.671 139.745 280.286 140.777 280.029 141.744C278.807 145.42 277.327 149.354 276.748 153.159C275.784 159.867 274.755 157.738 279.257 160.64C282.665 162.833 289.869 162.962 293.985 164.704C298.744 166.767 303.247 169.411 307.684 171.991C310.514 173.668 313.537 175.538 314.63 178.634C315.21 180.31 315.081 182.181 314.952 183.987C314.116 194.692 312.701 205.333 310.579 215.846C310.193 217.651 323.828 219.264 326.015 217.651C326.143 217.458 326.336 217.264 326.593 217.006Z" fill="#516770"/>
<g opacity="0.15">
<path opacity="0.15" d="M315.343 151.755C313.735 157.946 311.034 163.363 307.496 168.652C306.789 169.684 308.075 170.845 308.976 169.942C313.928 165.169 317.208 159.043 319.138 152.529C319.845 150.078 315.986 149.304 315.343 151.755Z" fill="#272525"/>
<path opacity="0.15" d="M324.491 158.089C322.176 163.958 318.768 167.441 313.622 170.923C312.915 171.375 313.494 172.535 314.266 172.213C317.546 170.923 320.504 170.278 323.141 167.763C325.585 165.441 327.515 162.668 328.479 159.444C329.187 157.186 325.328 155.897 324.491 158.089Z" fill="#272525"/>
</g>
</g>
<defs>
<linearGradient id="paint0_linear_58_105" x1="139.53" y1="426.17" x2="356.01" y2="426.17" gradientUnits="userSpaceOnUse">
<stop stop-color="#4D4D4D"/>
<stop offset="1"/>
</linearGradient>
<linearGradient id="paint1_linear_58_105" x1="139.517" y1="426.17" x2="355.997" y2="426.17" gradientUnits="userSpaceOnUse">
<stop/>
<stop offset="1"/>
</linearGradient>
</defs>
</svg>
